<?xml version="1.0" encoding="UTF-8" standalone="no"?>
<!DOCTYPE svg PUBLIC "-//W3C//DTD SVG 1.1//EN"
 "http://www.w3.org/Graphics/SVG/1.1/DTD/svg11.dtd">
<!-- Generated by graphviz version 2.43.0 (0)
 -->
<!-- Title: G Pages: 1 -->
<svg width="821pt" height="542pt"
 viewBox="0.00 0.00 821.19 541.92" xmlns="http://www.w3.org/2000/svg" xmlns:xlink="http://www.w3.org/1999/xlink">
<g id="graph0" class="graph" transform="scale(1 1) rotate(0) translate(4 537.92)">
<title>G</title><style>.edge>path:hover{stroke-width:8}</style>
<polygon fill="white" stroke="transparent" points="-4,4 -4,-537.92 817.19,-537.92 817.19,4 -4,4"/>
<!-- openconv_app -->
<g id="node1" class="node">
<title>openconv_app</title><style>.edge>path:hover{stroke-width:8}</style>
<ellipse fill="#7546a4" stroke="black" cx="763.75" cy="-457" rx="49.4" ry="18"/>
<text text-anchor="middle" x="763.75" y="-454.5" font-family="Helvetica,sans-Serif" font-size="10.00" fill="#ffffff">openconv.app</text>
</g>
<!-- openconv_converters -->
<g id="node2" class="node">
<title>openconv_converters</title><style>.edge>path:hover{stroke-width:8}</style>
<ellipse fill="#4c2673" stroke="black" cx="630.22" cy="-433" rx="48.17" ry="21.43"/>
<text text-anchor="middle" x="630.22" y="-436" font-family="Helvetica,sans-Serif" font-size="10.00" fill="#ffffff">openconv.</text>
<text text-anchor="middle" x="630.22" y="-425" font-family="Helvetica,sans-Serif" font-size="10.00" fill="#ffffff">converters</text>
</g>
<!-- openconv_converters&#45;&gt;openconv_app -->
<g id="edge21" class="edge">
<title>openconv_converters&#45;&gt;openconv_app</title><style>.edge>path:hover{stroke-width:8}</style>
<path fill="none" stroke="black" d="M675.01,-440.99C686,-443 697.9,-445.17 709.29,-447.25"/>
<polygon fill="#4c2673" stroke="black" points="708.67,-450.69 719.14,-449.04 709.93,-443.8 708.67,-450.69"/>
</g>
<!-- openconv_io_handlers -->
<g id="node3" class="node">
<title>openconv_io_handlers</title><style>.edge>path:hover{stroke-width:8}</style>
<ellipse fill="#6b35a1" stroke="black" cx="494.51" cy="-235" rx="51.74" ry="21.43"/>
<text text-anchor="middle" x="494.51" y="-238" font-family="Helvetica,sans-Serif" font-size="10.00" fill="#ffffff">openconv.</text>
<text text-anchor="middle" x="494.51" y="-227" font-family="Helvetica,sans-Serif" font-size="10.00" fill="#ffffff">io_handlers</text>
</g>
<!-- openconv_io_handlers&#45;&gt;openconv_converters -->
<g id="edge22" class="edge">
<title>openconv_io_handlers&#45;&gt;openconv_converters</title><style>.edge>path:hover{stroke-width:8}</style>
<path fill="none" stroke="black" d="M509.32,-255.44C533.25,-290.88 582.49,-363.81 609.84,-404.3"/>
<polygon fill="#6b35a1" stroke="black" points="606.99,-406.34 615.49,-412.67 612.79,-402.42 606.99,-406.34"/>
</g>
<!-- openconv_io_handlers_img_opencv -->
<g id="node4" class="node">
<title>openconv_io_handlers_img_opencv</title><style>.edge>path:hover{stroke-width:8}</style>
<ellipse fill="#7038a8" stroke="black" cx="352.45" cy="-311" rx="53.98" ry="28.98"/>
<text text-anchor="middle" x="352.45" y="-319.5" font-family="Helvetica,sans-Serif" font-size="10.00" fill="#ffffff">openconv.</text>
<text text-anchor="middle" x="352.45" y="-308.5" font-family="Helvetica,sans-Serif" font-size="10.00" fill="#ffffff">io_handlers.</text>
<text text-anchor="middle" x="352.45" y="-297.5" font-family="Helvetica,sans-Serif" font-size="10.00" fill="#ffffff">img_opencv</text>
</g>
<!-- openconv_io_handlers_img_opencv&#45;&gt;openconv_io_handlers -->
<g id="edge23" class="edge">
<title>openconv_io_handlers_img_opencv&#45;&gt;openconv_io_handlers</title><style>.edge>path:hover{stroke-width:8}</style>
<path fill="none" stroke="black" d="M390.98,-290.63C410.29,-280.16 433.83,-267.38 453.49,-256.72"/>
<polygon fill="#7038a8" stroke="black" points="455.38,-259.67 462.5,-251.83 452.04,-253.52 455.38,-259.67"/>
</g>
<!-- openconv_io_handlers_img_pillow -->
<g id="node5" class="node">
<title>openconv_io_handlers_img_pillow</title><style>.edge>path:hover{stroke-width:8}</style>
<ellipse fill="#7038a8" stroke="black" cx="352.45" cy="-387" rx="53.98" ry="28.98"/>
<text text-anchor="middle" x="352.45" y="-395.5" font-family="Helvetica,sans-Serif" font-size="10.00" fill="#ffffff">openconv.</text>
<text text-anchor="middle" x="352.45" y="-384.5" font-family="Helvetica,sans-Serif" font-size="10.00" fill="#ffffff">io_handlers.</text>
<text text-anchor="middle" x="352.45" y="-373.5" font-family="Helvetica,sans-Serif" font-size="10.00" fill="#ffffff">img_pillow</text>
</g>
<!-- openconv_io_handlers_img_pillow&#45;&gt;openconv_io_handlers -->
<g id="edge24" class="edge">
<title>openconv_io_handlers_img_pillow&#45;&gt;openconv_io_handlers</title><style>.edge>path:hover{stroke-width:8}</style>
<path fill="none" stroke="black" d="M387.75,-364.96C394.39,-360.05 401.09,-354.62 406.89,-349 433.61,-323.12 458.68,-288.55 474.91,-264.29"/>
<polygon fill="#7038a8" stroke="black" points="477.89,-266.13 480.48,-255.85 472.05,-262.27 477.89,-266.13"/>
</g>
<!-- openconv_io_handlers_pdf -->
<g id="node6" class="node">
<title>openconv_io_handlers_pdf</title><style>.edge>path:hover{stroke-width:8}</style>
<ellipse fill="#753ab0" stroke="black" cx="352.45" cy="-83" rx="53.98" ry="28.98"/>
<text text-anchor="middle" x="352.45" y="-91.5" font-family="Helvetica,sans-Serif" font-size="10.00" fill="#ffffff">openconv.</text>
<text text-anchor="middle" x="352.45" y="-80.5" font-family="Helvetica,sans-Serif" font-size="10.00" fill="#ffffff">io_handlers.</text>
<text text-anchor="middle" x="352.45" y="-69.5" font-family="Helvetica,sans-Serif" font-size="10.00" fill="#ffffff">pdf</text>
</g>
<!-- openconv_io_handlers_pdf&#45;&gt;openconv_io_handlers -->
<g id="edge25" class="edge">
<title>openconv_io_handlers_pdf&#45;&gt;openconv_io_handlers</title><style>.edge>path:hover{stroke-width:8}</style>
<path fill="none" stroke="black" d="M387.75,-105.04C394.39,-109.95 401.09,-115.38 406.89,-121 433.61,-146.88 458.68,-181.45 474.91,-205.71"/>
<polygon fill="#753ab0" stroke="black" points="472.05,-207.73 480.48,-214.15 477.89,-203.87 472.05,-207.73"/>
</g>
<!-- openconv_io_handlers_spreadsheet -->
<g id="node7" class="node">
<title>openconv_io_handlers_spreadsheet</title><style>.edge>path:hover{stroke-width:8}</style>
<ellipse fill="#753ab0" stroke="black" cx="352.45" cy="-235" rx="54.39" ry="28.98"/>
<text text-anchor="middle" x="352.45" y="-243.5" font-family="Helvetica,sans-Serif" font-size="10.00" fill="#ffffff">openconv.</text>
<text text-anchor="middle" x="352.45" y="-232.5" font-family="Helvetica,sans-Serif" font-size="10.00" fill="#ffffff">io_handlers.</text>
<text text-anchor="middle" x="352.45" y="-221.5" font-family="Helvetica,sans-Serif" font-size="10.00" fill="#ffffff">spreadsheet</text>
</g>
<!-- openconv_io_handlers_spreadsheet&#45;&gt;openconv_io_handlers -->
<g id="edge26" class="edge">
<title>openconv_io_handlers_spreadsheet&#45;&gt;openconv_io_handlers</title><style>.edge>path:hover{stroke-width:8}</style>
<path fill="none" stroke="black" d="M407.2,-235C415.43,-235 423.97,-235 432.34,-235"/>
<polygon fill="#753ab0" stroke="black" points="432.44,-238.5 442.44,-235 432.44,-231.5 432.44,-238.5"/>
</g>
<!-- openconv_io_handlers_video -->
<g id="node8" class="node">
<title>openconv_io_handlers_video</title><style>.edge>path:hover{stroke-width:8}</style>
<ellipse fill="#663399" stroke="black" cx="352.45" cy="-159" rx="53.98" ry="28.98"/>
<text text-anchor="middle" x="352.45" y="-167.5" font-family="Helvetica,sans-Serif" font-size="10.00" fill="#ffffff">openconv.</text>
<text text-anchor="middle" x="352.45" y="-156.5" font-family="Helvetica,sans-Serif" font-size="10.00" fill="#ffffff">io_handlers.</text>
<text text-anchor="middle" x="352.45" y="-145.5" font-family="Helvetica,sans-Serif" font-size="10.00" fill="#ffffff">video</text>
</g>
<!-- openconv_io_handlers_video&#45;&gt;openconv_io_handlers -->
<g id="edge27" class="edge">
<title>openconv_io_handlers_video&#45;&gt;openconv_io_handlers</title><style>.edge>path:hover{stroke-width:8}</style>
<path fill="none" stroke="black" d="M390.98,-179.37C410.29,-189.84 433.83,-202.62 453.49,-213.28"/>
<polygon fill="#663399" stroke="black" points="452.04,-216.48 462.5,-218.17 455.38,-210.33 452.04,-216.48"/>
</g>
<!-- PIL -->
<g id="node9" class="node">
<title>PIL</title><style>.edge>path:hover{stroke-width:8}</style>
<polygon fill="#d92626" stroke="black" points="184.5,-504 181.5,-508 160.5,-508 157.5,-504 130.5,-504 130.5,-468 184.5,-468 184.5,-504"/>
<text text-anchor="middle" x="157.5" y="-483.5" font-family="Helvetica,sans-Serif" font-size="10.00" fill="#ffffff">PIL</text>
</g>
<!-- PIL&#45;&gt;openconv_converters -->
<g id="edge1" class="edge">
<title>PIL&#45;&gt;openconv_converters</title><style>.edge>path:hover{stroke-width:8}</style>
<path fill="none" stroke="black" d="M262,-444C300.16,-432.87 311.9,-439.91 351.45,-444"/>
</g>
<!-- PIL&#45;&gt;openconv_io_handlers_img_pillow -->
<g id="edge2" class="edge">
<title>PIL&#45;&gt;openconv_io_handlers_img_pillow</title><style>.edge>path:hover{stroke-width:8}</style>
<path fill="none" stroke="black" d="M184.89,-471.11C205.02,-460.78 233.82,-448.16 261,-444"/>
<path fill="none" stroke="black" d="M262,-444C280.64,-438.56 299.11,-427.93 314.38,-417.31"/>
<polygon fill="#d92626" stroke="black" points="316.45,-420.13 322.51,-411.44 312.35,-414.45 316.45,-420.13"/>
</g>
<!-- PyPDF2 -->
<g id="node10" class="node">
<title>PyPDF2</title><style>.edge>path:hover{stroke-width:8}</style>
<polygon fill="#c2a347" stroke="black" points="184.5,-36 181.5,-40 160.5,-40 157.5,-36 130.5,-36 130.5,0 184.5,0 184.5,-36"/>
<text text-anchor="middle" x="157.5" y="-15.5" font-family="Helvetica,sans-Serif" font-size="10.00" fill="#000000">PyPDF2</text>
</g>
<!-- PyPDF2&#45;&gt;openconv_converters -->
<g id="edge3" class="edge">
<title>PyPDF2&#45;&gt;openconv_converters</title><style>.edge>path:hover{stroke-width:8}</style>
<path fill="none" stroke="black" d="M184.74,-18.98C205.52,-20.01 235.24,-22.06 261,-26"/>
<path fill="none" stroke="black" d="M262,-26C300.92,-34.12 311.9,-30.09 351.45,-26"/>
<path fill="none" stroke="black" d="M353.45,-26C534.89,-7.25 605.58,-303.45 623.98,-401.82"/>
<polygon fill="#c2a347" stroke="black" points="620.55,-402.54 625.79,-411.76 627.44,-401.29 620.55,-402.54"/>
</g>
<!-- PyPDF2&#45;&gt;openconv_io_handlers_pdf -->
<g id="edge4" class="edge">
<title>PyPDF2&#45;&gt;openconv_io_handlers_pdf</title><style>.edge>path:hover{stroke-width:8}</style>
<path fill="none" stroke="black" d="M262,-26C272.97,-27.68 293.44,-40.41 312.03,-53.42"/>
<polygon fill="#c2a347" stroke="black" points="310.23,-56.43 320.4,-59.38 314.28,-50.73 310.23,-56.43"/>
</g>
<!-- convcore -->
<g id="node11" class="node">
<title>convcore</title><style>.edge>path:hover{stroke-width:8}</style>
<polygon fill="#85f910" stroke="black" points="188,-412 185,-416 164,-416 161,-412 127,-412 127,-376 188,-376 188,-412"/>
<text text-anchor="middle" x="157.5" y="-391.5" font-family="Helvetica,sans-Serif" font-size="10.00" fill="#000000">convcore</text>
</g>
<!-- convcore&#45;&gt;openconv_app -->
<g id="edge5" class="edge">
<title>convcore&#45;&gt;openconv_app</title><style>.edge>path:hover{stroke-width:8}</style>
<path fill="none" stroke="black" d="M168.81,-412.23C184.89,-438.01 218.55,-482 261,-482 261,-482 261,-482 495.51,-482 569.06,-482 653.49,-472.5 707.44,-465.21"/>
<polygon fill="#85f910" stroke="black" points="708.04,-468.66 717.47,-463.83 707.09,-461.72 708.04,-468.66"/>
</g>
<!-- convcore&#45;&gt;openconv_converters -->
<g id="edge6" class="edge">
<title>convcore&#45;&gt;openconv_converters</title><style>.edge>path:hover{stroke-width:8}</style>
<path fill="none" stroke="black" d="M188.27,-396.77C199.74,-398.53 212.78,-401.38 224,-406"/>
</g>
<!-- convcore&#45;&gt;openconv_io_handlers_img_opencv -->
<g id="edge7" class="edge">
<title>convcore&#45;&gt;openconv_io_handlers_img_opencv</title><style>.edge>path:hover{stroke-width:8}</style>
<path fill="none" stroke="black" d="M262,-330C272.29,-328.94 283.14,-327.18 293.6,-325.16"/>
<polygon fill="#85f910" stroke="black" points="294.37,-328.57 303.47,-323.15 292.97,-321.72 294.37,-328.57"/>
</g>
<!-- convcore&#45;&gt;openconv_io_handlers_img_pillow -->
<g id="edge8" class="edge">
<title>convcore&#45;&gt;openconv_io_handlers_img_pillow</title><style>.edge>path:hover{stroke-width:8}</style>
<path fill="none" stroke="black" d="M262,-330C267.84,-329.4 290.03,-343.52 310.85,-357.86"/>
<polygon fill="#85f910" stroke="black" points="309.12,-360.92 319.33,-363.76 313.12,-355.17 309.12,-360.92"/>
</g>
<!-- convcore&#45;&gt;openconv_io_handlers_pdf -->
<g id="edge9" class="edge">
<title>convcore&#45;&gt;openconv_io_handlers_pdf</title><style>.edge>path:hover{stroke-width:8}</style>
<path fill="none" stroke="black" d="M164.3,-375.98C179.9,-329.57 226.49,-203.76 298,-121 301.09,-117.42 304.59,-114 308.28,-110.78"/>
<polygon fill="#85f910" stroke="black" points="310.49,-113.5 316.05,-104.48 306.08,-108.06 310.49,-113.5"/>
</g>
<!-- convcore&#45;&gt;openconv_io_handlers_spreadsheet -->
<g id="edge10" class="edge">
<title>convcore&#45;&gt;openconv_io_handlers_spreadsheet</title><style>.edge>path:hover{stroke-width:8}</style>
<path fill="none" stroke="black" d="M176.14,-375.86C195.13,-358.19 227.19,-333.49 261,-330"/>
<path fill="none" stroke="black" d="M262,-330C290.96,-322.3 277.4,-294.76 298,-273 301.25,-269.56 304.86,-266.24 308.62,-263.09"/>
<polygon fill="#85f910" stroke="black" points="310.81,-265.81 316.48,-256.86 306.47,-260.33 310.81,-265.81"/>
</g>
<!-- convcore&#45;&gt;openconv_io_handlers_video -->
<g id="edge11" class="edge">
<title>convcore&#45;&gt;openconv_io_handlers_video</title><style>.edge>path:hover{stroke-width:8}</style>
<path fill="none" stroke="black" d="M168.49,-375.91C189.29,-339.3 240.12,-254.99 298,-197 301.39,-193.6 305.11,-190.29 308.97,-187.14"/>
<polygon fill="#85f910" stroke="black" points="311.26,-189.79 317,-180.89 306.96,-184.27 311.26,-189.79"/>
</g>
<!-- cv2 -->
<g id="node12" class="node">
<title>cv2</title><style>.edge>path:hover{stroke-width:8}</style>
<polygon fill="#26d953" stroke="black" points="184.5,-90 181.5,-94 160.5,-94 157.5,-90 130.5,-90 130.5,-54 184.5,-54 184.5,-90"/>
<text text-anchor="middle" x="157.5" y="-69.5" font-family="Helvetica,sans-Serif" font-size="10.00" fill="#000000">cv2</text>
</g>
<!-- cv2&#45;&gt;openconv_converters -->
<g id="edge12" class="edge">
<title>cv2&#45;&gt;openconv_converters</title><style>.edge>path:hover{stroke-width:8}</style>
<path fill="none" stroke="black" d="M184.74,-66.65C205.52,-63.21 235.24,-60.06 261,-64"/>
<path fill="none" stroke="black" d="M262,-64C279.84,-66.98 281.43,-52.27 298,-45 321.08,-34.87 326.37,-28.59 351.45,-26"/>
</g>
<!-- cv2&#45;&gt;openconv_io_handlers_img_opencv -->
<g id="edge13" class="edge">
<title>cv2&#45;&gt;openconv_io_handlers_img_opencv</title><style>.edge>path:hover{stroke-width:8}</style>
<path fill="none" stroke="black" d="M179.81,-90.23C182.69,-93.05 185.51,-96.02 188,-99 217.35,-134.09 266.54,-239.79 298,-273 301.25,-276.44 304.86,-279.76 308.62,-282.91"/>
<polygon fill="#26d953" stroke="black" points="306.47,-285.67 316.48,-289.13 310.81,-280.18 306.47,-285.67"/>
</g>
<!-- cv2&#45;&gt;openconv_io_handlers_video -->
<g id="edge14" class="edge">
<title>cv2&#45;&gt;openconv_io_handlers_video</title><style>.edge>path:hover{stroke-width:8}</style>
<path fill="none" stroke="black" d="M262,-64C291.62,-68.53 277.4,-99.24 298,-121 301.25,-124.44 304.86,-127.76 308.62,-130.91"/>
<polygon fill="#26d953" stroke="black" points="306.47,-133.67 316.48,-137.14 310.81,-128.19 306.47,-133.67"/>
</g>
<!-- imageio -->
<g id="node13" class="node">
<title>imageio</title><style>.edge>path:hover{stroke-width:8}</style>
<polygon fill="#40bfc0" stroke="black" points="185.5,-144 182.5,-148 161.5,-148 158.5,-144 129.5,-144 129.5,-108 185.5,-108 185.5,-144"/>
<text text-anchor="middle" x="157.5" y="-123.5" font-family="Helvetica,sans-Serif" font-size="10.00" fill="#000000">imageio</text>
</g>
<!-- imageio&#45;&gt;openconv_io_handlers_video -->
<g id="edge15" class="edge">
<title>imageio&#45;&gt;openconv_io_handlers_video</title><style>.edge>path:hover{stroke-width:8}</style>
<path fill="none" stroke="black" d="M185.66,-135.3C197.35,-138.39 211.24,-140.85 224,-140"/>
<path fill="none" stroke="black" d="M225,-140C247.56,-138.49 272.19,-141.19 293.67,-144.99"/>
<polygon fill="#40bfc0" stroke="black" points="293.14,-148.45 303.61,-146.87 294.44,-141.57 293.14,-148.45"/>
</g>
<!-- numpy -->
<g id="node14" class="node">
<title>numpy</title><style>.edge>path:hover{stroke-width:8}</style>
<polygon fill="#0643f9" stroke="black" points="54,-458 51,-462 30,-462 27,-458 0,-458 0,-422 54,-422 54,-458"/>
<text text-anchor="middle" x="27" y="-437.5" font-family="Helvetica,sans-Serif" font-size="10.00" fill="#ffffff">numpy</text>
</g>
<!-- numpy&#45;&gt;openconv_converters -->
<g id="edge18" class="edge">
<title>numpy&#45;&gt;openconv_converters</title><style>.edge>path:hover{stroke-width:8}</style>
<path fill="none" stroke="black" d="M91,-440C123.14,-423.4 98.27,-491.02 127,-513 161.89,-539.69 180.07,-532 224,-532 224,-532 224,-532 353.45,-532 443.66,-532 541.23,-484.49 592.67,-455.29"/>
<polygon fill="#0643f9" stroke="black" points="594.51,-458.27 601.42,-450.24 591.01,-452.21 594.51,-458.27"/>
</g>
<!-- numpy&#45;&gt;openconv_io_handlers_img_opencv -->
<g id="edge19" class="edge">
<title>numpy&#45;&gt;openconv_io_handlers_img_opencv</title><style>.edge>path:hover{stroke-width:8}</style>
<path fill="none" stroke="black" d="M91,-440C129.78,-419.35 148.18,-439.54 188,-421 206.63,-412.33 207.3,-403.97 224,-392 250.75,-372.81 281.93,-352.96 306.75,-337.71"/>
<polygon fill="#0643f9" stroke="black" points="308.88,-340.51 315.58,-332.31 305.23,-334.54 308.88,-340.51"/>
</g>
<!-- numpy&#45;&gt;openconv_io_handlers_video -->
<g id="edge20" class="edge">
<title>numpy&#45;&gt;openconv_io_handlers_video</title><style>.edge>path:hover{stroke-width:8}</style>
<path fill="none" stroke="black" d="M91,-440C163.53,-400.78 91.76,-332.54 127,-258 141.51,-227.31 190.1,-141.81 224,-140"/>
</g>
<!-- numpy&#45;&gt;PIL -->
<g id="edge16" class="edge">
<title>numpy&#45;&gt;PIL</title><style>.edge>path:hover{stroke-width:8}</style>
<path fill="none" stroke="black" d="M91,-440C99.09,-435.69 116.25,-448.05 130.98,-461.04"/>
<polygon fill="#0643f9" stroke="black" points="128.65,-463.65 138.4,-467.81 133.37,-458.48 128.65,-463.65"/>
</g>
<!-- numpy&#45;&gt;cv2 -->
<g id="edge17" class="edge">
<title>numpy&#45;&gt;cv2</title><style>.edge>path:hover{stroke-width:8}</style>
<path fill="none" stroke="black" d="M54.07,-445.32C65.69,-446.4 79.17,-445.77 90,-440"/>
<path fill="none" stroke="black" d="M91,-440C158.26,-404.18 92.67,-167.03 127,-99 127.05,-98.9 127.1,-98.81 127.15,-98.71"/>
<polygon fill="#0643f9" stroke="black" points="130.16,-100.51 132.97,-90.29 124.41,-96.52 130.16,-100.51"/>
</g>
<!-- pandas -->
<g id="node15" class="node">
<title>pandas</title><style>.edge>path:hover{stroke-width:8}</style>
<polygon fill="#cc33a6" stroke="black" points="184.5,-303 181.5,-307 160.5,-307 157.5,-303 130.5,-303 130.5,-267 184.5,-267 184.5,-303"/>
<text text-anchor="middle" x="157.5" y="-282.5" font-family="Helvetica,sans-Serif" font-size="10.00" fill="#ffffff">pandas</text>
</g>
<!-- pandas&#45;&gt;openconv_converters -->
<g id="edge28" class="edge">
<title>pandas&#45;&gt;openconv_converters</title><style>.edge>path:hover{stroke-width:8}</style>
<path fill="none" stroke="black" d="M165.13,-303.26C177.1,-334.89 203.02,-397.36 224,-406"/>
<path fill="none" stroke="black" d="M225,-406C279.26,-428.35 293.08,-437.97 351.45,-444"/>
<path fill="none" stroke="black" d="M353.45,-444C429.31,-448.57 517.04,-443.25 572.8,-438.55"/>
<polygon fill="#cc33a6" stroke="black" points="573.17,-442.03 582.83,-437.68 572.57,-435.06 573.17,-442.03"/>
</g>
<!-- pandas&#45;&gt;openconv_io_handlers_spreadsheet -->
<g id="edge29" class="edge">
<title>pandas&#45;&gt;openconv_io_handlers_spreadsheet</title><style>.edge>path:hover{stroke-width:8}</style>
<path fill="none" stroke="black" d="M184.52,-278.26C212.26,-271.07 257.08,-259.45 293.3,-250.07"/>
<polygon fill="#cc33a6" stroke="black" points="294.46,-253.38 303.26,-247.49 292.7,-246.61 294.46,-253.38"/>
</g>
</g>
</svg>
